G04 (created by PCBNEW (2013-mar-25)-stable) date Thursday, May 05, 2016 07:05:57 AM*
%MOIN*%
G04 Gerber Fmt 3.4, Leading zero omitted, Abs format*
%FSLAX34Y34*%
G01*
G70*
G90*
G04 APERTURE LIST*
%ADD10C,0.006*%
%ADD11C,0.011811*%
%ADD12C,0.00590551*%
%ADD13C,0.00984252*%
%ADD14C,0.000393701*%
G04 APERTURE END LIST*
G54D10*
G54D11*
X47698Y-22445D02*
X47698Y-21461D01*
X48261Y-22445D02*
X47839Y-21883D01*
X48261Y-21461D02*
X47698Y-22023D01*
X48682Y-22445D02*
X48682Y-21789D01*
X48682Y-21461D02*
X48636Y-21508D01*
X48682Y-21555D01*
X48729Y-21508D01*
X48682Y-21461D01*
X48682Y-21555D01*
X49057Y-21789D02*
X49245Y-22445D01*
X49432Y-21976D01*
X49620Y-22445D01*
X49807Y-21789D01*
X50182Y-22445D02*
X50182Y-21789D01*
X50182Y-21461D02*
X50135Y-21508D01*
X50182Y-21555D01*
X50229Y-21508D01*
X50182Y-21461D01*
X50182Y-21555D01*
X50604Y-22398D02*
X50745Y-22445D01*
X50979Y-22445D01*
X51073Y-22398D01*
X51120Y-22351D01*
X51167Y-22258D01*
X51167Y-22164D01*
X51120Y-22070D01*
X51073Y-22023D01*
X50979Y-21976D01*
X50792Y-21930D01*
X50698Y-21883D01*
X50651Y-21836D01*
X50604Y-21742D01*
X50604Y-21648D01*
X50651Y-21555D01*
X50698Y-21508D01*
X50792Y-21461D01*
X51026Y-21461D01*
X51167Y-21508D01*
X51588Y-22445D02*
X51588Y-21461D01*
X51823Y-21461D01*
X51963Y-21508D01*
X52057Y-21601D01*
X52104Y-21695D01*
X52151Y-21883D01*
X52151Y-22023D01*
X52104Y-22211D01*
X52057Y-22305D01*
X51963Y-22398D01*
X51823Y-22445D01*
X51588Y-22445D01*
X53135Y-22445D02*
X52807Y-21976D01*
X52573Y-22445D02*
X52573Y-21461D01*
X52948Y-21461D01*
X53041Y-21508D01*
X53088Y-21555D01*
X53135Y-21648D01*
X53135Y-21789D01*
X53088Y-21883D01*
X53041Y-21930D01*
X52948Y-21976D01*
X52573Y-21976D01*
X43574Y-22957D02*
X43902Y-23941D01*
X44230Y-22957D01*
X45074Y-23941D02*
X44511Y-23941D01*
X44792Y-23941D02*
X44792Y-22957D01*
X44699Y-23098D01*
X44605Y-23191D01*
X44511Y-23238D01*
X45495Y-23847D02*
X45542Y-23894D01*
X45495Y-23941D01*
X45449Y-23894D01*
X45495Y-23847D01*
X45495Y-23941D01*
X46152Y-22957D02*
X46245Y-22957D01*
X46339Y-23004D01*
X46386Y-23051D01*
X46433Y-23144D01*
X46480Y-23332D01*
X46480Y-23566D01*
X46433Y-23754D01*
X46386Y-23847D01*
X46339Y-23894D01*
X46245Y-23941D01*
X46152Y-23941D01*
X46058Y-23894D01*
X46011Y-23847D01*
X45964Y-23754D01*
X45917Y-23566D01*
X45917Y-23332D01*
X45964Y-23144D01*
X46011Y-23051D01*
X46058Y-23004D01*
X46152Y-22957D01*
X47604Y-23051D02*
X47651Y-23004D01*
X47745Y-22957D01*
X47979Y-22957D01*
X48073Y-23004D01*
X48120Y-23051D01*
X48167Y-23144D01*
X48167Y-23238D01*
X48120Y-23379D01*
X47558Y-23941D01*
X48167Y-23941D01*
X48589Y-23566D02*
X49339Y-23566D01*
X49807Y-23941D02*
X49807Y-22957D01*
X50135Y-23660D01*
X50464Y-22957D01*
X50464Y-23941D01*
X51354Y-23941D02*
X51354Y-23426D01*
X51307Y-23332D01*
X51213Y-23285D01*
X51026Y-23285D01*
X50932Y-23332D01*
X51354Y-23894D02*
X51260Y-23941D01*
X51026Y-23941D01*
X50932Y-23894D01*
X50885Y-23801D01*
X50885Y-23707D01*
X50932Y-23613D01*
X51026Y-23566D01*
X51260Y-23566D01*
X51354Y-23519D01*
X51729Y-23285D02*
X51963Y-23941D01*
X52198Y-23285D02*
X51963Y-23941D01*
X51870Y-24176D01*
X51823Y-24222D01*
X51729Y-24269D01*
X52573Y-23566D02*
X53323Y-23566D01*
X53744Y-23051D02*
X53791Y-23004D01*
X53885Y-22957D01*
X54119Y-22957D01*
X54213Y-23004D01*
X54260Y-23051D01*
X54307Y-23144D01*
X54307Y-23238D01*
X54260Y-23379D01*
X53697Y-23941D01*
X54307Y-23941D01*
X54916Y-22957D02*
X55010Y-22957D01*
X55104Y-23004D01*
X55150Y-23051D01*
X55197Y-23144D01*
X55244Y-23332D01*
X55244Y-23566D01*
X55197Y-23754D01*
X55150Y-23847D01*
X55104Y-23894D01*
X55010Y-23941D01*
X54916Y-23941D01*
X54822Y-23894D01*
X54775Y-23847D01*
X54729Y-23754D01*
X54682Y-23566D01*
X54682Y-23332D01*
X54729Y-23144D01*
X54775Y-23051D01*
X54822Y-23004D01*
X54916Y-22957D01*
X56182Y-23941D02*
X55619Y-23941D01*
X55900Y-23941D02*
X55900Y-22957D01*
X55807Y-23098D01*
X55713Y-23191D01*
X55619Y-23238D01*
X57025Y-22957D02*
X56838Y-22957D01*
X56744Y-23004D01*
X56697Y-23051D01*
X56603Y-23191D01*
X56556Y-23379D01*
X56556Y-23754D01*
X56603Y-23847D01*
X56650Y-23894D01*
X56744Y-23941D01*
X56931Y-23941D01*
X57025Y-23894D01*
X57072Y-23847D01*
X57119Y-23754D01*
X57119Y-23519D01*
X57072Y-23426D01*
X57025Y-23379D01*
X56931Y-23332D01*
X56744Y-23332D01*
X56650Y-23379D01*
X56603Y-23426D01*
X56556Y-23519D01*
G54D12*
X48631Y-26143D02*
X48451Y-26143D01*
X48541Y-26143D02*
X48541Y-25749D01*
X48511Y-25806D01*
X48481Y-25843D01*
X48451Y-25862D01*
X48931Y-26143D02*
X48751Y-26143D01*
X48841Y-26143D02*
X48841Y-25749D01*
X48811Y-25806D01*
X48781Y-25843D01*
X48751Y-25862D01*
X49036Y-25749D02*
X49246Y-25749D01*
X49111Y-26143D01*
X49366Y-26106D02*
X49381Y-26124D01*
X49366Y-26143D01*
X49351Y-26124D01*
X49366Y-26106D01*
X49366Y-26143D01*
X49576Y-25749D02*
X49606Y-25749D01*
X49636Y-25768D01*
X49651Y-25787D01*
X49666Y-25824D01*
X49681Y-25899D01*
X49681Y-25993D01*
X49666Y-26068D01*
X49651Y-26106D01*
X49636Y-26124D01*
X49606Y-26143D01*
X49576Y-26143D01*
X49546Y-26124D01*
X49531Y-26106D01*
X49516Y-26068D01*
X49501Y-25993D01*
X49501Y-25899D01*
X49516Y-25824D01*
X49531Y-25787D01*
X49546Y-25768D01*
X49576Y-25749D01*
X50056Y-26143D02*
X50056Y-25881D01*
X50056Y-25918D02*
X50071Y-25899D01*
X50101Y-25881D01*
X50146Y-25881D01*
X50176Y-25899D01*
X50191Y-25937D01*
X50191Y-26143D01*
X50191Y-25937D02*
X50206Y-25899D01*
X50236Y-25881D01*
X50281Y-25881D01*
X50311Y-25899D01*
X50326Y-25937D01*
X50326Y-26143D01*
X50476Y-26143D02*
X50476Y-25881D01*
X50476Y-25918D02*
X50491Y-25899D01*
X50521Y-25881D01*
X50566Y-25881D01*
X50596Y-25899D01*
X50611Y-25937D01*
X50611Y-26143D01*
X50611Y-25937D02*
X50626Y-25899D01*
X50656Y-25881D01*
X50701Y-25881D01*
X50731Y-25899D01*
X50746Y-25937D01*
X50746Y-26143D01*
G54D13*
X29921Y-26771D02*
X75984Y-26771D01*
X29921Y-25984D02*
X29921Y-27559D01*
X75984Y-25984D02*
X75984Y-27559D01*
X29921Y-26771D02*
X30314Y-26377D01*
X29921Y-26771D02*
X30314Y-27165D01*
X75984Y-26771D02*
X75590Y-26377D01*
X75984Y-26771D02*
X75590Y-27165D01*
G54D12*
X79081Y-39923D02*
X78931Y-39923D01*
X78916Y-40110D01*
X78931Y-40091D01*
X78961Y-40073D01*
X79036Y-40073D01*
X79066Y-40091D01*
X79081Y-40110D01*
X79096Y-40148D01*
X79096Y-40241D01*
X79081Y-40279D01*
X79066Y-40298D01*
X79036Y-40316D01*
X78961Y-40316D01*
X78931Y-40298D01*
X78916Y-40279D01*
X79381Y-39923D02*
X79231Y-39923D01*
X79216Y-40110D01*
X79231Y-40091D01*
X79261Y-40073D01*
X79336Y-40073D01*
X79366Y-40091D01*
X79381Y-40110D01*
X79396Y-40148D01*
X79396Y-40241D01*
X79381Y-40279D01*
X79366Y-40298D01*
X79336Y-40316D01*
X79261Y-40316D01*
X79231Y-40298D01*
X79216Y-40279D01*
X79531Y-40279D02*
X79546Y-40298D01*
X79531Y-40316D01*
X79516Y-40298D01*
X79531Y-40279D01*
X79531Y-40316D01*
X79741Y-39923D02*
X79771Y-39923D01*
X79801Y-39941D01*
X79816Y-39960D01*
X79831Y-39998D01*
X79846Y-40073D01*
X79846Y-40166D01*
X79831Y-40241D01*
X79816Y-40279D01*
X79801Y-40298D01*
X79771Y-40316D01*
X79741Y-40316D01*
X79711Y-40298D01*
X79696Y-40279D01*
X79681Y-40241D01*
X79666Y-40166D01*
X79666Y-40073D01*
X79681Y-39998D01*
X79696Y-39960D01*
X79711Y-39941D01*
X79741Y-39923D01*
X80221Y-40316D02*
X80221Y-40054D01*
X80221Y-40091D02*
X80236Y-40073D01*
X80266Y-40054D01*
X80311Y-40054D01*
X80341Y-40073D01*
X80356Y-40110D01*
X80356Y-40316D01*
X80356Y-40110D02*
X80371Y-40073D01*
X80401Y-40054D01*
X80446Y-40054D01*
X80476Y-40073D01*
X80491Y-40110D01*
X80491Y-40316D01*
X80641Y-40316D02*
X80641Y-40054D01*
X80641Y-40091D02*
X80656Y-40073D01*
X80686Y-40054D01*
X80731Y-40054D01*
X80761Y-40073D01*
X80776Y-40110D01*
X80776Y-40316D01*
X80776Y-40110D02*
X80791Y-40073D01*
X80821Y-40054D01*
X80866Y-40054D01*
X80896Y-40073D01*
X80911Y-40110D01*
X80911Y-40316D01*
G54D13*
X77559Y-28543D02*
X77559Y-50196D01*
X76771Y-50196D02*
X78346Y-50196D01*
X76771Y-28543D02*
X78346Y-28543D01*
X77559Y-28543D02*
X77165Y-28937D01*
X77559Y-28543D02*
X77952Y-28937D01*
X77559Y-50196D02*
X77165Y-49803D01*
X77559Y-50196D02*
X77952Y-49803D01*
G54D14*
X72145Y-34547D02*
X73720Y-34547D01*
X73720Y-34547D02*
X73720Y-36122D01*
X73720Y-36122D02*
X72145Y-36122D01*
X72145Y-36122D02*
X72145Y-34547D01*
X43543Y-43730D02*
X42283Y-43730D01*
X42283Y-43730D02*
X42283Y-42746D01*
X42283Y-42746D02*
X43543Y-42746D01*
X43543Y-42746D02*
X43543Y-43730D01*
X38877Y-44685D02*
X39862Y-44685D01*
X39862Y-44685D02*
X39862Y-45472D01*
X39862Y-45472D02*
X38877Y-45472D01*
X38877Y-45472D02*
X38877Y-44685D01*
X52834Y-34094D02*
X53464Y-34094D01*
X53464Y-34094D02*
X53464Y-35590D01*
X53464Y-35590D02*
X52834Y-35590D01*
X52834Y-35590D02*
X52834Y-34094D01*
X52834Y-31338D02*
X53464Y-31338D01*
X53464Y-31338D02*
X53464Y-32834D01*
X53464Y-32834D02*
X52834Y-32834D01*
X52834Y-32834D02*
X52834Y-31338D01*
X49803Y-32480D02*
X51771Y-32480D01*
X51771Y-32480D02*
X51771Y-34448D01*
X51771Y-34448D02*
X49803Y-34448D01*
X49803Y-34448D02*
X49803Y-32480D01*
X65541Y-38533D02*
X65541Y-37844D01*
X65541Y-37844D02*
X66742Y-37844D01*
X66742Y-37844D02*
X66742Y-38533D01*
X66742Y-38533D02*
X65541Y-38533D01*
X49950Y-45088D02*
X49261Y-45088D01*
X49261Y-45088D02*
X49261Y-43887D01*
X49261Y-43887D02*
X49950Y-43887D01*
X49950Y-43887D02*
X49950Y-45088D01*
X53494Y-30521D02*
X52805Y-30521D01*
X52805Y-30521D02*
X52805Y-29320D01*
X52805Y-29320D02*
X53494Y-29320D01*
X53494Y-29320D02*
X53494Y-30521D01*
X57677Y-40748D02*
X57677Y-34055D01*
X57677Y-34055D02*
X64370Y-34055D01*
X64370Y-34055D02*
X64370Y-40748D01*
X64370Y-40748D02*
X57677Y-40748D01*
X71850Y-31299D02*
X73031Y-31299D01*
X73031Y-31299D02*
X73031Y-32480D01*
X73031Y-32480D02*
X71850Y-32480D01*
X71850Y-32480D02*
X71850Y-31299D01*
X38582Y-42618D02*
X40157Y-42618D01*
X40157Y-42618D02*
X40157Y-44192D01*
X40157Y-44192D02*
X38582Y-44192D01*
X38582Y-44192D02*
X38582Y-42618D01*
X43897Y-33464D02*
X43897Y-32283D01*
X43897Y-32283D02*
X45078Y-32283D01*
X45078Y-32283D02*
X45078Y-33464D01*
X45078Y-33464D02*
X43897Y-33464D01*
X29921Y-28543D02*
X29921Y-50196D01*
X29921Y-50196D02*
X75984Y-50196D01*
X75984Y-50196D02*
X75984Y-43897D01*
X75984Y-43897D02*
X68110Y-43897D01*
X68110Y-36811D02*
X68110Y-43897D01*
X75984Y-36811D02*
X75984Y-31102D01*
X75984Y-36811D02*
X68110Y-36811D01*
X29921Y-28543D02*
X73425Y-28543D01*
X75984Y-31102D02*
G75*
G03X73425Y-28543I-2559J0D01*
G74*
G01*
X52755Y-37647D02*
X53543Y-37647D01*
X53543Y-37647D02*
X53543Y-37155D01*
X53543Y-37155D02*
X52755Y-37155D01*
X52755Y-37155D02*
X52755Y-37647D01*
X32578Y-32834D02*
X32578Y-33622D01*
X32578Y-33622D02*
X31988Y-33622D01*
X31988Y-33622D02*
X31988Y-32834D01*
X31988Y-32834D02*
X32578Y-32834D01*
X33956Y-37295D02*
X33956Y-39476D01*
X33956Y-39476D02*
X31397Y-39476D01*
X31397Y-39476D02*
X31397Y-37295D01*
X31397Y-37295D02*
X33956Y-37295D01*
X69893Y-35053D02*
X69893Y-33253D01*
X69893Y-33253D02*
X71444Y-33253D01*
X71444Y-33253D02*
X71444Y-35053D01*
X71444Y-35053D02*
X69893Y-35053D01*
X52755Y-39222D02*
X53543Y-39222D01*
X53543Y-39222D02*
X53543Y-38730D01*
X53543Y-38730D02*
X52755Y-38730D01*
X52755Y-38730D02*
X52755Y-39222D01*
X47935Y-37286D02*
X49884Y-35337D01*
X47935Y-37286D02*
X49327Y-38678D01*
X51276Y-36729D02*
X49884Y-35337D01*
X49327Y-38678D02*
X51276Y-36729D01*
X47244Y-37854D02*
X35370Y-37854D01*
X35370Y-37854D02*
X35370Y-30255D01*
X35370Y-30255D02*
X47244Y-30255D01*
X47244Y-30255D02*
X47244Y-37854D01*
X47244Y-48287D02*
X35370Y-48287D01*
X35370Y-48287D02*
X35370Y-40688D01*
X35370Y-40688D02*
X47244Y-40688D01*
X47244Y-40688D02*
X47244Y-48287D01*
X31850Y-36417D02*
X32637Y-36417D01*
X32637Y-36417D02*
X32637Y-37007D01*
X32637Y-37007D02*
X31850Y-37007D01*
X31850Y-37007D02*
X31850Y-36417D01*
X59133Y-46653D02*
X57401Y-46653D01*
X57401Y-46653D02*
X57401Y-45472D01*
X57401Y-45472D02*
X59133Y-45472D01*
X59133Y-45472D02*
X59133Y-46653D01*
X26296Y-42307D02*
X26671Y-42307D01*
X26671Y-42307D02*
X26671Y-42057D01*
X26671Y-42057D02*
X26921Y-42057D01*
X26921Y-42057D02*
X27171Y-42057D01*
X27171Y-42057D02*
X27421Y-42057D01*
X27421Y-42057D02*
X27671Y-42057D01*
X27671Y-42057D02*
X27921Y-42057D01*
X27921Y-42057D02*
X28171Y-42057D01*
X28171Y-42057D02*
X28546Y-42057D01*
X28546Y-42057D02*
X28546Y-42307D01*
X28546Y-42307D02*
X29296Y-42307D01*
X29296Y-42307D02*
X29296Y-44307D01*
X29296Y-44307D02*
X28546Y-44307D01*
X28546Y-44307D02*
X28546Y-44557D01*
X28546Y-44557D02*
X28171Y-44557D01*
X28171Y-44557D02*
X27921Y-44557D01*
X27921Y-44557D02*
X27671Y-44557D01*
X27671Y-44557D02*
X27421Y-44557D01*
X27421Y-44557D02*
X27171Y-44557D01*
X27171Y-44557D02*
X26921Y-44557D01*
X26921Y-44557D02*
X26671Y-44557D01*
X26671Y-44557D02*
X26671Y-44307D01*
X26671Y-44307D02*
X26296Y-44307D01*
X26296Y-44307D02*
X26296Y-42307D01*
X26671Y-42307D02*
X26671Y-44307D01*
X26671Y-42057D02*
X26921Y-44557D01*
X26921Y-42057D02*
X27171Y-44557D01*
X27171Y-42057D02*
X27421Y-44557D01*
X27421Y-42057D02*
X27671Y-44557D01*
X27671Y-42057D02*
X27921Y-44557D01*
X27921Y-42057D02*
X28171Y-44557D01*
X31171Y-43432D02*
X31171Y-43182D01*
X31171Y-43182D02*
X29921Y-43182D01*
X31171Y-43432D02*
X29921Y-43432D01*
X28171Y-42057D02*
X28421Y-44557D01*
X29921Y-42519D02*
X31421Y-42519D01*
X31421Y-42519D02*
X31421Y-42125D01*
X29921Y-42125D02*
X31421Y-42125D01*
X29921Y-44094D02*
X31421Y-44094D01*
X31421Y-44094D02*
X31421Y-44488D01*
X29921Y-44094D02*
X31421Y-44094D01*
X31421Y-44094D02*
X31421Y-44488D01*
X29921Y-44488D02*
X31421Y-44488D01*
X29921Y-44586D02*
X29921Y-42027D01*
X29321Y-44586D02*
X29321Y-42027D01*
X29921Y-44586D02*
X29321Y-44586D01*
X29921Y-42027D02*
X29321Y-42027D01*
X26296Y-32661D02*
X26671Y-32661D01*
X26671Y-32661D02*
X26671Y-32411D01*
X26671Y-32411D02*
X26921Y-32411D01*
X26921Y-32411D02*
X27171Y-32411D01*
X27171Y-32411D02*
X27421Y-32411D01*
X27421Y-32411D02*
X27671Y-32411D01*
X27671Y-32411D02*
X27921Y-32411D01*
X27921Y-32411D02*
X28171Y-32411D01*
X28171Y-32411D02*
X28546Y-32411D01*
X28546Y-32411D02*
X28546Y-32661D01*
X28546Y-32661D02*
X29296Y-32661D01*
X29296Y-32661D02*
X29296Y-34661D01*
X29296Y-34661D02*
X28546Y-34661D01*
X28546Y-34661D02*
X28546Y-34911D01*
X28546Y-34911D02*
X28171Y-34911D01*
X28171Y-34911D02*
X27921Y-34911D01*
X27921Y-34911D02*
X27671Y-34911D01*
X27671Y-34911D02*
X27421Y-34911D01*
X27421Y-34911D02*
X27171Y-34911D01*
X27171Y-34911D02*
X26921Y-34911D01*
X26921Y-34911D02*
X26671Y-34911D01*
X26671Y-34911D02*
X26671Y-34661D01*
X26671Y-34661D02*
X26296Y-34661D01*
X26296Y-34661D02*
X26296Y-32661D01*
X26671Y-32661D02*
X26671Y-34661D01*
X26671Y-32411D02*
X26921Y-34911D01*
X26921Y-32411D02*
X27171Y-34911D01*
X27171Y-32411D02*
X27421Y-34911D01*
X27421Y-32411D02*
X27671Y-34911D01*
X27671Y-32411D02*
X27921Y-34911D01*
X27921Y-32411D02*
X28171Y-34911D01*
X31171Y-33786D02*
X31171Y-33536D01*
X31171Y-33536D02*
X29921Y-33536D01*
X31171Y-33786D02*
X29921Y-33786D01*
X28171Y-32411D02*
X28421Y-34911D01*
X29921Y-32874D02*
X31421Y-32874D01*
X31421Y-32874D02*
X31421Y-32480D01*
X29921Y-32480D02*
X31421Y-32480D01*
X29921Y-34448D02*
X31421Y-34448D01*
X31421Y-34448D02*
X31421Y-34842D01*
X29921Y-34448D02*
X31421Y-34448D01*
X31421Y-34448D02*
X31421Y-34842D01*
X29921Y-34842D02*
X31421Y-34842D01*
X29921Y-34940D02*
X29921Y-32381D01*
X29321Y-34940D02*
X29321Y-32381D01*
X29921Y-34940D02*
X29321Y-34940D01*
X29921Y-32381D02*
X29321Y-32381D01*
X71417Y-45078D02*
X75984Y-45078D01*
X75984Y-45078D02*
X75984Y-48858D01*
X75984Y-48858D02*
X71417Y-48858D01*
X71417Y-48858D02*
X71417Y-45078D01*
X74133Y-46181D02*
X74685Y-46181D01*
X74685Y-46181D02*
X74685Y-46732D01*
X74685Y-46732D02*
X74133Y-46732D01*
X74133Y-46732D02*
X74133Y-46181D01*
X66102Y-44685D02*
X69724Y-44685D01*
X69724Y-44685D02*
X69724Y-47047D01*
X69724Y-47047D02*
X66102Y-47047D01*
X66102Y-47047D02*
X66102Y-44685D01*
M02*
